<svg width="191" height="39" fill="none" xmlns="http://www.w3.org/2000/svg"><g clip-path="url(#a)"><path d="M0 9.772A18.544 18.544 0 0 1 8.026 7.82c5.024 0 9.703 2.3 9.703 8.21v14.754h-5.925v-14.54c0-2.086-1.677-2.998-3.393-2.998a5.108 5.108 0 0 0-2.446.61v16.895H0V9.77ZM21.547 15.855c0-5.366 4.46-7.995 8.928-8.048 4.467-.054 8.88 2.682 8.88 8.048v7.337c0 5.426-4.46 7.948-8.88 7.995-4.421.046-8.928-2.562-8.928-7.995v-7.337Zm5.965-.39v7.861c0 1.436 1.544 2.435 2.963 2.435 1.418 0 2.916-1 2.916-2.435V15.46c0-1.435-1.544-2.213-2.916-2.213-1.372 0-2.963.785-2.963 2.213v.007ZM44.937 23.474c1.676 1.61 3.817 2.521 5.361 2.521.365.034.731-.043 1.052-.221.321-.178.583-.449.751-.778.557-1.3-.126-2.562-2.147-2.864-4.978-.865-7.251-4.124-7.29-7.337-.04-3.52 2.703-6.948 7.595-6.948a11.18 11.18 0 0 1 7.085 2.347l-2.996 4.098a5.747 5.747 0 0 0-3.606-1.388 1.889 1.889 0 0 0-1.366.497c-.372.341-.596.819-.622 1.327-.126 1.342 1.988 2.3 2.963 2.475 2.83.738 6.396 2.347 6.396 6.6 0 4.909-3.864 7.377-8.027 7.377-3.088 0-5.879-1-7.953-3.823l2.803-3.883ZM61.453 9.51a25.22 25.22 0 0 1 8.67-1.697c4.678 0 9.225 1.563 9.225 7.512v8.216c0 5.298-4.123 7.599-8.285 7.646a8.53 8.53 0 0 1-3.605-.785V39h-6.005V9.51Zm6.011 16.506a4.816 4.816 0 0 0 2.32.523c1.929 0 3.606-.953 3.606-2.998V15.03c0-1.824-1.591-2.609-3.52-2.609a5.427 5.427 0 0 0-2.406.523v13.072ZM99.57 26.928c-1.717 3.212-5.15 4.259-7.768 4.259-4.46 0-8.968-2.683-8.968-7.995v-7.424c0-5.426 4.593-7.948 9.054-7.948 4.334 0 8.616 2.26 8.616 7.686v6.626H88.813v1c0 1.737 1.63 2.682 3.347 2.682a4.009 4.009 0 0 0 1.952-.401 4.061 4.061 0 0 0 1.527-1.295l3.93 2.81Zm-4.72-11.335c0-1.562-1.418-2.347-2.916-2.347s-3.121.785-3.121 2.387v2.013h6.011l.026-2.053ZM113.514 31.1c-.43.046-.855.087-1.246.087-5.753 0-8.284-3.736-8.284-8.337V0h5.965v22.843c0 1.697 1.113 3.085 3.559 3.085l.006 5.171ZM125.444 31.1c-.43.046-.855.087-1.246.087-5.753 0-8.284-3.736-8.284-8.337V0h5.965v22.843c0 1.697 1.113 3.085 3.559 3.085l.006 5.171ZM129.653 23.474c1.677 1.61 3.818 2.521 5.362 2.521.365.034.731-.043 1.052-.221.321-.178.582-.449.751-.778.556-1.3-.126-2.562-2.148-2.864-4.977-.865-7.251-4.124-7.29-7.337-.04-3.52 2.704-6.948 7.595-6.948a11.212 11.212 0 0 1 7.085 2.347l-2.962 4.125a5.748 5.748 0 0 0-3.606-1.388 1.888 1.888 0 0 0-1.366.497c-.373.341-.596.819-.622 1.327-.126 1.341 1.988 2.3 2.962 2.475 2.83.738 6.396 2.347 6.396 6.6 0 4.909-3.864 7.377-8.026 7.377-3.089 0-5.879-1-7.953-3.823l2.77-3.91Z" fill="red"/><path d="M149.092 23.474a3.678 3.678 0 0 1 2.082.601c.62.406 1.106.989 1.396 1.675a3.787 3.787 0 0 1-.77 4.118 3.704 3.704 0 0 1-1.905 1.042 3.671 3.671 0 0 1-2.155-.21 3.717 3.717 0 0 1-1.672-1.392 3.782 3.782 0 0 1-.621-2.099 3.746 3.746 0 0 1 1.057-2.632 3.672 3.672 0 0 1 1.186-.813c.444-.189.921-.288 1.402-.29ZM165.794 28.29a4.332 4.332 0 0 1-1.611 2.178 4.252 4.252 0 0 1-2.577.779c-2.134 0-4.315-1.26-4.315-3.843v-3.588c0-2.582 2.181-3.863 4.315-3.863 1.537 0 3.506.71 4.063 2.937l-2.466.778a1.615 1.615 0 0 0-.617-.818 1.586 1.586 0 0 0-.98-.275c-.35-.03-.697.082-.965.31a1.343 1.343 0 0 0-.467.91v3.589a1.361 1.361 0 0 0 .46.923 1.326 1.326 0 0 0 .972.318c.364.009.721-.1 1.019-.311.298-.212.522-.514.638-.863l2.531.838ZM167.021 23.836c0-2.582 2.154-3.863 4.314-3.883 2.161-.02 4.302 1.3 4.302 3.883v3.548c0 2.622-2.154 3.843-4.295 3.863-2.141.02-4.321-1.24-4.321-3.863v-3.548Zm2.883-.188v3.796c.067.331.245.629.504.843a1.441 1.441 0 0 0 1.834 0 1.47 1.47 0 0 0 .505-.843v-3.796c0-.67-.749-1.073-1.412-1.073-.662 0-1.451.382-1.451 1.073h.02ZM177.493 21.3a5.972 5.972 0 0 1 3.837-1.34 3.317 3.317 0 0 1 1.608.303c.503.234.941.59 1.275 1.038.338-.415.762-.75 1.242-.982a3.612 3.612 0 0 1 1.535-.36c1.989 0 3.977 1.221 3.977 3.696v7.377h-2.863v-7.485c0-.67-.623-.965-1.266-.965s-1.286.315-1.286.945v7.512h-2.757v-7.431c0-.67-.749-1.026-1.472-1.026a1.503 1.503 0 0 0-1.034.422v8.048h-2.796v-9.751Z" fill="#333"/></g><defs><clipPath id="a"><path fill="#fff" d="M0 0h191v39H0z"/></clipPath></defs></svg>