<svg width="16" height="16" fill="none" xmlns="http://www.w3.org/2000/svg"><g clip-path="url(#a)" fill="#666"><path d="M11.333 5.333h-.666v-1.26a2.667 2.667 0 0 0-5.334 0v1.26h-.666a2 2 0 0 0-2 2v5.334a2 2 0 0 0 2 2h6.666a2 2 0 0 0 2-2V7.333a2 2 0 0 0-2-2Zm-4.666-1.26A1.373 1.373 0 0 1 8 2.667a1.373 1.373 0 0 1 1.333 1.406v1.26H6.667v-1.26ZM12 12.667a.666.666 0 0 1-.667.666H4.667A.666.666 0 0 1 4 12.667V7.333a.667.667 0 0 1 .667-.666h6.666a.667.667 0 0 1 .667.666v5.334Z"/><path d="M8 8a2 2 0 1 0 0 4 2 2 0 0 0 0-4Zm0 2.667a.666.666 0 1 1 0-1.333.666.666 0 0 1 0 1.333Z"/></g><defs><clipPath id="a"><path fill="#fff" d="M0 0h16v16H0z"/></clipPath></defs></svg>