<svg width="40" height="40" fill="none" xmlns="http://www.w3.org/2000/svg"><g fill="#666" clip-path="url(#a)"><path d="M20 26.667a1.667 1.667 0 1 0 0-3.334 1.667 1.667 0 0 0 0 3.334Z"/><path d="M28.333 13.333h-1.666v-3.15a6.667 6.667 0 0 0-13.334 0v3.15h-1.666a5 5 0 0 0-5 5v13.334a5 5 0 0 0 5 5h16.666a5 5 0 0 0 5-5V18.333a5 5 0 0 0-5-5Zm-11.666-3.15A3.433 3.433 0 0 1 20 6.667a3.433 3.433 0 0 1 3.333 3.516v3.15h-6.666v-3.15ZM20 30a5 5 0 1 1 0-10 5 5 0 0 1 0 10Z"/></g><defs><clipPath id="a"><path fill="#fff" d="M0 0h40v40H0z"/></clipPath></defs></svg>