<svg width="40" height="40" fill="none" xmlns="http://www.w3.org/2000/svg"><g clip-path="url(#a)"><path d="m33.533 11.183-4.716-4.716A5 5 0 0 0 25.283 5H14.717a5 5 0 0 0-3.534 1.467l-4.716 4.716A5 5 0 0 0 5 14.717V30a5 5 0 0 0 5 5h20a5 5 0 0 0 5-5V14.717a5 5 0 0 0-1.467-3.534ZM20 26.667A6.666 6.666 0 0 1 13.333 20a1.666 1.666 0 1 1 3.334 0 3.333 3.333 0 1 0 6.666 0 1.666 1.666 0 1 1 3.334 0A6.666 6.666 0 0 1 20 26.667Zm-9.317-15 2.85-2.85a1.75 1.75 0 0 1 1.184-.484h10.566a1.75 1.75 0 0 1 1.184.484l2.85 2.85H10.683Z" fill="#666"/></g><defs><clipPath id="a"><path fill="#fff" d="M0 0h40v40H0z"/></clipPath></defs></svg>