<svg width="20" height="20" fill="none" xmlns="http://www.w3.org/2000/svg"><g clip-path="url(#a)"><path d="M14.633 17.5a.833.833 0 0 1-.383-.092L10 15.183l-4.25 2.225a.833.833 0 0 1-1.208-.883l.833-4.692L1.942 8.5a.833.833 0 0 1-.209-.833.833.833 0 0 1 .675-.567l4.75-.692L9.25 2.133a.833.833 0 0 1 1.5 0L12.867 6.4l4.75.692a.833.833 0 0 1 .675.566.833.833 0 0 1-.209.834l-3.433 3.333.833 4.692a.832.832 0 0 1-.333.833.834.834 0 0 1-.517.15ZM10 13.417a.767.767 0 0 1 .383.091l3.142 1.667-.6-3.508a.834.834 0 0 1 .242-.742l2.5-2.442-3.5-.516a.833.833 0 0 1-.592-.467L10 4.375 8.425 7.5a.833.833 0 0 1-.625.45l-3.5.517 2.5 2.441a.834.834 0 0 1 .242.742l-.6 3.467 3.141-1.667a.767.767 0 0 1 .417-.033Z" fill="#666"/></g><defs><clipPath id="a"><path fill="#fff" d="M0 0h20v20H0z"/></clipPath></defs></svg>