<svg width="20" height="20" fill="none" xmlns="http://www.w3.org/2000/svg"><g clip-path="url(#a)"><path d="M10 20c5.523 0 10-4.477 10-10S15.523 0 10 0 0 4.477 0 10s4.477 10 10 10Z" fill="#D80027"/><g fill="#FFDA44"><path d="m5.473 6.086.863 2.656h2.793L6.87 10.387l.863 2.656-2.261-1.64-2.262 1.64.867-2.656-2.262-1.645H4.61l.864-2.656ZM11.855 15.488l-.66-.812-.976.379.566-.88-.66-.816 1.012.27.57-.879.055 1.047 1.015.27-.98.374.058 1.047ZM13.168 13.105l.313-1-.856-.605 1.047-.016.308-1 .34.993 1.047-.012-.84.625.336.992-.855-.605-.84.628ZM14.938 7.34l-.461.941.75.73-1.036-.148-.46.938-.18-1.031-1.04-.149.93-.488-.18-1.035.75.73.927-.488ZM11.883 4.488l-.078 1.043.972.395-1.02.25-.073 1.047-.551-.891-1.02.25.676-.8-.555-.887.973.394.676-.8Z"/></g></g><defs><clipPath id="a"><path fill="#fff" d="M0 0h20v20H0z"/></clipPath></defs></svg>