<svg width="36" height="36" fill="none" xmlns="http://www.w3.org/2000/svg"><g clip-path="url(#a)"><path d="M18 36c9.941 0 18-8.059 18-18S27.941 0 18 0 0 8.059 0 18s8.059 18 18 18Z" fill="#A8ADF0"/><path d="M18 0c-.796 0-1.58.052-2.348.152C24.484 1.302 31.304 8.855 31.304 18s-6.82 16.697-15.652 17.848c.769.1 1.552.152 2.348.152 9.941 0 18-8.059 18-18S27.941 0 18 0Z" fill="#989FEC"/><path d="m29.378 8.028-.089-.226a.027.027 0 0 0-.014-.014l-.22-.1c-1.817-.825-4.378-1.029-6.645-1.12h-2.553c-.03 0-.038.04-.012.052l5.244 2.514c.03.015.013.059-.018.05a28.081 28.081 0 0 0-7.094-.927c-2.345 0-4.72.31-7.071.921-.032.009-.049-.036-.019-.05l5.428-2.507c.027-.013.018-.052-.01-.052h-2.761c-2.267.09-4.829.294-6.645 1.119l-.22.1a.027.027 0 0 0-.015.015l-.089.225c-1.858 4.71-2.387 12.706-1.823 17.715l.03.263.208.162c2.904 2.251 6.787 3.41 9.23 3.716l.315.04c.103.013.2-.046.237-.143l1.59-4.248a.223.223 0 0 0-.174-.299l-.488-.076c-1.701-.267-4.111-.976-6.148-2.823-.044-.04-.002-.11.053-.09.166.062.348.133.536.206.46.18.937.366 1.248.44 2.184.52 4.399.783 6.588.783v-.04h.004v.04c2.185 0 4.4-.264 6.584-.783.31-.074.787-.26 1.247-.44.188-.073.37-.145.536-.206.055-.02.097.05.054.09-2.03 1.839-4.443 2.546-6.148 2.813l-.488.076a.223.223 0 0 0-.175.299l1.59 4.258a.223.223 0 0 0 .238.143l.316-.04c2.442-.307 6.325-1.465 9.228-3.716l.21-.162.029-.263c.563-5.01.035-13.005-1.824-17.715Zm-16.59 11.564a3.173 3.173 0 0 1-3.446-3.446 3.177 3.177 0 0 1 2.867-2.868 3.173 3.173 0 0 1 3.446 3.446 3.177 3.177 0 0 1-2.867 2.868Zm10.956 0a3.173 3.173 0 0 1-3.445-3.446 3.177 3.177 0 0 1 2.867-2.868 3.173 3.173 0 0 1 3.446 3.446 3.177 3.177 0 0 1-2.867 2.868Z" fill="#fff"/></g><defs><clipPath id="a"><path fill="#fff" d="M0 0h36v36H0z"/></clipPath></defs></svg>