<svg width="36" height="36" fill="none" xmlns="http://www.w3.org/2000/svg"><g clip-path="url(#a)"><path d="M18 0c9.94 0 18 8.06 18 18s-8.06 18-18 18S0 27.94 0 18 8.058 0 18 0Z" fill="#3F729B"/><path d="M24.212 7.873H11.787a3.918 3.918 0 0 0-3.914 3.914v12.426a3.918 3.918 0 0 0 3.914 3.914h12.426a3.918 3.918 0 0 0 3.914-3.913V11.787a3.92 3.92 0 0 0-3.915-3.914Zm1.233 2.264h.444v3.36l-3.387.012-.01-3.361 2.953-.01ZM18 14.611c2.81 0 3.389 2.637 3.389 3.39A3.393 3.393 0 0 1 18 21.388a3.393 3.393 0 0 1-3.388-3.387c-.002-.753.579-3.39 3.388-3.39Zm7.908 9.357c0 1.07-.87 1.94-1.942 1.94h-11.97a1.943 1.943 0 0 1-1.942-1.94v-8.222h2.813c-.261.642-.409 1.52-.409 2.255a5.545 5.545 0 0 0 5.539 5.539A5.544 5.544 0 0 0 23.534 18c0-.736-.148-1.613-.407-2.255h2.778v8.222h.003Z" fill="#fff"/></g><defs><clipPath id="a"><path fill="#fff" d="M0 0h36v36H0z"/></clipPath></defs></svg>