<svg width="36" height="36" fill="none" xmlns="http://www.w3.org/2000/svg"><g clip-path="url(#a)"><path d="M18 0c9.942 0 18 8.06 18 18 0 9.942-8.058 18-18 18S0 27.942 0 18C0 8.06 8.058 0 18 0Z" fill="#26A6D1"/><path d="M29.253 12.126a8.966 8.966 0 0 1-2.52.672 4.292 4.292 0 0 0 1.93-2.357 8.893 8.893 0 0 1-2.787 1.034 4.443 4.443 0 0 0-3.202-1.343c-2.42 0-4.385 1.904-4.385 4.255 0 .335.038.66.114.971-3.645-.177-6.878-1.873-9.04-4.448a4.135 4.135 0 0 0-.595 2.14c0 1.476.774 2.78 1.951 3.543a4.46 4.46 0 0 1-1.988-.534v.054c0 2.064 1.512 3.784 3.52 4.175a4.539 4.539 0 0 1-1.98.073c.557 1.692 2.177 2.923 4.097 2.957A8.968 8.968 0 0 1 8.92 25.14c-.354 0-.703-.02-1.047-.06a12.694 12.694 0 0 0 6.725 1.914c8.068 0 12.48-6.489 12.48-12.114l-.011-.55a8.754 8.754 0 0 0 2.186-2.204Z" fill="#fff"/></g><defs><clipPath id="a"><path fill="#fff" d="M0 0h36v36H0z"/></clipPath></defs></svg>